# xmcd
# Track frame offsets:
# 182
# 9107
# 32995
# 44770
# 58165
# 83115
# 106177
# 122315
# 144005
# 165722
# 169612
# 190477
# 212982
# 230465
# 233847
# 257192
# 271267
# 288517
# 309040
#
# Disc length: 4179 seconds
# Revision: 7
# Processed by: cddbd v1.4PL0 Copyright (c) Steve Scherf et al.
# Submitted via: VisiTrax 2.9.5.180 - For more info visit www.synapsa.com
#
DISCID=00105113
DTITLE=Various Artist - Until the End of the World
DYEAR=1991
DGENRE=
TTITLE0=Revell Graeme - Opening Titles (solo David Darling)
TTITLE1=Talking Heads - Sax and Violins
TTITLE2=Cruise Julee - Summer Kisses, Winter Tears
TTITLE3=Cherry Neneh - Move with Me
TTITLE4=Crime and the City Solution - The Adversary
TTITLE5=Reed Lou - What's Good
TTITLE6=Can - Last Night Sleep
TTITLE7=R.E.M. - Fretless
TTITLE8=Costello Elvis - Days
TTITLE9=Revell Graeme - Claire's Theme (solo David Darling)
TTITLE10=Cave Nick and the Bad Seeds - (I'll Love You) Till the End of the Worl
TTITLE10=d
TTITLE11=Smith Patti and Fred - It Takes Time
TTITLE12=Depeche Mode - Death's Door
TTITLE13=Revell Graeme - Love Theme (solo David Darling)
TTITLE14=Siberry Jane - Calling All Angels (with K. D. Lang)
TTITLE15=Burnett T-Bone - Humans From Earth
TTITLE16=Lanois Daniel - Sleeping in the Devil's Bed
TTITLE17=U2 - Until the End of the World
TTITLE18=Revell Graeme (solo David Darling) - Finale
EXTD=
EXTT0=
EXTT1=
EXTT2=
EXTT3=
EXTT4=
EXTT5=
EXTT6=
EXTT7=
EXTT8=
EXTT9=
EXTT10=
EXTT11=
EXTT12=
EXTT13=
EXTT14=
EXTT15=
EXTT16=
EXTT17=
EXTT18=
PLAYORDER=
